#!OML:ASF H:\Terrain\Patient Classification 1\PLAYGROUND\JustinFriday\JustinFriday.ASF
:FULLY-SPECIFIED
:DEGREES
386
root -6.19177 13.7868 10.6384 16.6853 -87.554 -21.1935
lowerback 11.3537 0.980371 -1.37306
upperback -6.85706 1.15703 1.15877
thorax -14.0551 0.713577 1.8001
lowerneck -1.45841 -2.06052 -4.37403
upperneck 12.96 -3.7261 7.68993
head 4.31762 -1.76705 2.92034
rclavicle -1.68967e-015 -7.35503e-015
rhumerus 108.306 -21.0948 -56.8034
rradius 23.7687
rwrist -342.252
rhand -1.168 -16.3616
rfingers 7.12502
rthumb 24.4712 -44.8184
lclavicle -1.68967e-015 -7.35503e-015
lhumerus 105.317 23.0929 49.2183
lradius 26.4493
lwrist -5.68618
lhand -6.49003 -4.17627
lfingers 7.12502
lthumb 19.3612 24.8799
rfemur 0.714485 -8.29773 13.7432
rtibia 104.637
rfoot -3.32102 -7.74497
rtoes 1.99708
lfemur 5.10043 4.72541 4.46281
ltibia 102.266
lfoot 5.90271 -8.61426
ltoes 8.25297
387
root -6.06031 13.8146 10.6371 8.41556 -87.4457 -12.4995
lowerback 11.4469 1.01133 -1.84484
upperback -6.96507 1.12712 1.27638
thorax -14.2575 0.75448 2.20489
lowerneck -0.579541 -2.03734 -4.49201
upperneck 11.4003 -3.55299 7.45028
head 3.68737 -1.72007 2.88127
rclavicle 9.0447e-015 5.1684e-015
rhumerus 106.587 -21.6451 -54.8921
rradius 26.3653
rwrist -344.104
rhand -0.838921 -17.9537
rfingers 7.12502
rthumb 24.7866 -46.3675
lclavicle 9.0447e-015 5.1684e-015
lhumerus 104.935 22.9435 49.8168
lradius 26.8159
lwrist -5.41379
lhand -6.37437 -5.16988
lfingers 7.12502
lthumb 19.4724 23.8751
rfemur 0.660035 -8.55247 13.0889
rtibia 104.745
rfoot -3.30392 -7.4827
rtoes 1.80554
lfemur 4.99634 4.70031 3.96503
ltibia 102.255
lfoot 5.73708 -8.55874
ltoes 6.12319
388
root -5.92596 13.8424 10.6299 2.04607 -87.2637 -5.72434
lowerback 11.6221 0.745081 -1.77422
upperback -7.07144 0.750754 1.09537
thorax -14.4665 0.562859 2.05257
lowerneck -1.02303 -2.28699 -4.34241
upperneck 11.613 -3.85651 7.08712
head 3.83659 -1.86692 2.72728
rclavicle -4.47266e-016 1.19271e-015
rhumerus 105.264 -22.1523 -53.3171
rradius 28.0809
rwrist -346.606
rhand -1.19433 -19.2394
rfingers 7.12502
rthumb 24.4459 -47.6996
lclavicle -4.47266e-016 1.19271e-015
lhumerus 103.151 23.8108 47.2899
lradius 28.265
lwrist -4.25572
lhand -7.50104 -1.81904
lfingers 7.12502
lthumb 18.3889 27.3318
rfemur 0.598614 -8.80432 12.5481
rtibia 104.866
rfoot -3.24517 -7.38346
rtoes 2.59601
lfemur 4.85364 4.70198 3.72869
ltibia 102.24
lfoot 5.55731 -8.73515
ltoes 3.95439
389
root -5.79289 13.8711 10.6269 -4.8136 -87.0232 1.50681
lowerback 12.0509 -0.263117 -3.35928
upperback -7.81046 -0.717454 2.96475
thorax -15.542 0.200278 5.46139
lowerneck 2.84439 -0.231948 -8.60295
upperneck 8.31471 -1.00354 7.28338
head 2.29353 -0.676708 3.96211
rclavicle 6.16232e-015 -3.49861e-014
rhumerus 106.063 -18.1291 -51.9632
rradius 29.456
rwrist -348.368
rhand -1.2005 -19.4604
rfingers 7.12502
rthumb 24.44 -47.9214
lclavicle 6.16232e-015 -3.49861e-014
lhumerus 97.6222 26.5397 45.1341
lradius 28.9714
lwrist -3.37571
lhand -7.32038 -2.29222
lfingers 7.12502
lthumb 18.5627 26.8421
rfemur 0.595449 -9.00192 11.9473
rtibia 104.974
rfoot -3.10879 -7.12419
rtoes 3.1481
lfemur 4.77727 4.56964 3.31056
ltibia 102.221
lfoot 5.83381 -8.94245
ltoes 6.28868
390
root -5.6586 13.9004 10.6301 -9.90607 -86.8101 6.87313
lowerback 11.7535 0.969819 -2.12596
upperback -6.83715 0.9301 0.54201
thorax -14.2757 0.644274 1.58814
lowerneck -1.54556 -2.74228 -3.19222
upperneck 9.31554 -4.28186 6.64502
head 3.55976 -2.06147 2.62117
rclavicle -1.21134e-014 5.46658e-015
rhumerus 106.643 -21.9455 -55.6976
rradius 26.9147
rwrist -344.475
rhand -1.61126 -17.122
rfingers 7.12502
rthumb 24.0462 -45.6355
lclavicle -1.21134e-014 5.46658e-015
lhumerus 102.311 23.953 46.1019
lradius 30.6694
lwrist -3.31321
lhand -8.62656 0.0278576
lfingers 7.12502
lthumb 17.3059 29.2774
rfemur 0.664699 -9.27515 11.2675
rtibia 105.089
rfoot -2.99144 -6.70691
rtoes 3.63859
lfemur 4.80341 4.40234 2.82978
ltibia 102.162
lfoot 6.20929 -8.76021
ltoes 8.39525
391
root -5.52648 13.9337 10.631 -3.10131 -86.8276 0.448737
lowerback 11.8226 0.882352 -1.77526
upperback -7.08215 0.914324 0.925357
thorax -14.6106 0.630057 1.82268
lowerneck 0.281861 -3.56864 -2.80215
upperneck 6.58154 -5.16756 5.57299
head 2.28473 -2.56342 2.1689
rclavicle 1.73937e-015 -1.78906e-015
rhumerus 105.774 -21.5139 -54.7299
rradius 27.7396
rwrist -345.399
rhand -1.9393 -17.2612
rfingers 7.12502
rthumb 23.7316 -45.816
lclavicle 1.73937e-015 -1.78906e-015
lhumerus 100.773 24.0784 45.5959
lradius 31.8131
lwrist -3.29214
lhand -9.14561 1.79679
lfingers 7.12502
lthumb 16.8063 31.0895
rfemur 0.503719 -9.26272 11.7607
rtibia 105.131
rfoot -2.93707 -6.74834
rtoes 4.49212
lfemur 4.79573 4.51843 3.39463
ltibia 102.093
lfoot 6.09805 -8.87464
ltoes 7.22197
